<svg id="sports-logo-us-soccer" xmlns="http://www.w3.org/2000/svg" viewBox="0 0 117.19 160">
                <title>US Soccer</title>
                <g>
                  <polygon points="98.06 18.96 89.3 18.96 89.3 33.94 98.06 29.91 98.06 18.96" style="fill: #fff; stroke-width: 0px;"></polygon>
                  <path d="m2.89,100.93c0,9.81,4.76,19.08,12.75,24.78l42.98,30.73,42.96-30.73c7.98-5.71,12.74-14.97,12.74-24.78V2.89H2.89v98.05Zm29.72,27.35l-7.4-5.34v-61.37l7.4,3.41v63.3Zm29.68,16.19l-3.63,2.62-3.77-2.72v-69.11l3.69,1.7,3.71-1.7v69.22Zm29.69-21.44l-7.4,5.34v-63.34l7.4-3.39v61.39Zm7.51-5.24l-2.85,2.09c1.45-1.96,2.38-4.3,2.68-6.78.07-.58.11-1.16.11-1.74v-53.22l7.38-3.41v47.8c.01,6.11-2.5,11.72-7.32,15.25ZM80.53,14.44c0-2.1,1.7-3.81,3.81-3.81h22.48v30.93c0,2.22-1.3,4.24-3.32,5.17l-5.44,2.5v-9.69l-7.18,3.3c-.96.44-1.58,1.4-1.58,2.46v7.96l-8.77,4V14.44Zm-3.39,119.31l-7.4,5.34v-67.25l7.4-3.39v65.3Zm-31.69-88.96l8.77,4.07v7.42l4.37,2.01,4.37-2.01v-12.54l-14.1-6.49c-2.07-.95-3.4-3.03-3.4-5.31V14.34c0-2.05,1.66-3.7,3.71-3.7h18.86c2.05,0,3.7,1.66,3.7,3.7v15.06l-8.77-4.07v-6.37h-8.73v10.92l14.09,6.47c2.08.95,3.41,3.03,3.41,5.31v15.94c0,2.21-1.29,4.22-3.29,5.14l-9.84,4.52-9.84-4.53c-2.01-.92-3.29-2.93-3.29-5.14v-12.81Zm-5.4,23.62l7.4,3.41v67.17l-7.4-5.34v-65.24ZM10.37,10.64h8.76v27.3c0,.98.57,1.88,1.47,2.29l7.27,3.35V10.64h8.76v46.57l-22.86-10.52c-2.07-.95-3.4-3.03-3.4-5.31V10.64Zm0,44.1l7.38,3.41v53.22c0,.58.04,1.16.11,1.74.3,2.48,1.24,4.81,2.68,6.78l-2.85-2.09c-4.82-3.54-7.33-9.14-7.33-15.25v-47.8Z" style="fill: #fff; stroke-width: 0px;"></path>
                  <polygon points="25.21 122.94 32.61 128.29 32.61 64.99 25.21 61.58 25.21 122.94" style="fill: #c10230; stroke-width: 0px;"></polygon>
                  <polygon points="47.45 71.83 40.05 68.42 40.05 133.66 47.45 139 47.45 71.83" style="fill: #c10230; stroke-width: 0px;"></polygon>
                  <polygon points="54.89 75.26 54.89 144.37 58.66 147.09 62.29 144.47 62.29 75.25 58.58 76.96 54.89 75.26" style="fill: #c10230; stroke-width: 0px;"></polygon>
                  <polygon points="69.74 139.1 77.14 133.75 77.14 68.45 69.74 71.84 69.74 139.1" style="fill: #c10230; stroke-width: 0px;"></polygon>
                  <polygon points="84.58 128.38 91.98 123.03 91.98 61.65 84.58 65.04 84.58 128.38" style="fill: #c10230; stroke-width: 0px;"></polygon>
                  <path d="m17.7,117.79l2.85,2.09c-1.45-1.96-2.38-4.3-2.68-6.78-.07-.58-.11-1.16-.11-1.74v-53.22l-7.38-3.41v47.8c-.01,6.11,2.5,11.72,7.32,15.25Z" style="fill: #c10230; stroke-width: 0px;"></path>
                  <path d="m99.43,58.15v53.22c0,.58-.04,1.16-.11,1.74-.3,2.48-1.23,4.81-2.68,6.78l2.85-2.09c4.82-3.54,7.33-9.14,7.33-15.25v-47.8s-7.4,3.41-7.4,3.41Z" style="fill: #c10230; stroke-width: 0px;"></path>
                  <path d="m48.74,62.74l9.84,4.53,9.84-4.52c2.01-.92,3.29-2.93,3.29-5.14v-15.94c0-2.28-1.33-4.36-3.41-5.31l-14.09-6.47v-10.92h8.73v6.37l8.77,4.07v-15.06c0-2.05-1.66-3.7-3.7-3.7h-18.86c-2.05,0-3.71,1.66-3.71,3.7v17.61c0,2.28,1.33,4.36,3.4,5.31l14.1,6.49v12.54l-4.37,2.01-4.37-2.01v-7.42l-8.77-4.07v12.81c0,2.21,1.29,4.21,3.29,5.14Z" style="fill: #202945; stroke-width: 0px;"></path>
                  <path d="m89.3,45.3c0-1.06.62-2.02,1.58-2.46l7.18-3.3v9.69l5.44-2.5c2.02-.93,3.32-2.95,3.32-5.17V10.64h-22.48c-2.1,0-3.81,1.7-3.81,3.81v42.82l8.77-4v-7.96Zm0-26.34h8.76v10.95l-8.76,4.03v-14.98Z" style="fill: #202945; stroke-width: 0px;"></path>
                  <path d="m13.78,46.69l22.86,10.52V10.64h-8.76v32.94l-7.27-3.35c-.89-.41-1.47-1.31-1.47-2.29V10.64h-8.76v30.74c0,2.28,1.33,4.36,3.4,5.31Z" style="fill: #202945; stroke-width: 0px;"></path>
                  <path d="m0,0v100.93c0,10.74,5.22,20.88,13.95,27.13l44.66,31.94,44.64-31.94c8.73-6.25,13.95-16.39,13.95-27.13V0H0Zm114.3,100.94c0,9.81-4.76,19.07-12.74,24.78l-42.96,30.73-42.98-30.73c-7.98-5.71-12.75-14.97-12.75-24.78V2.89h111.42v98.05Z" style="fill: #202945; stroke-width: 0px;"></path>
                </g>
              </svg>