<svg id="sports-logo-mlb-tbs" xmlns="http://www.w3.org/2000/svg" viewBox="0 0 280 84.58">
                <title>MLB on TBS</title>
                <g>
                  <path d="m276.37,3.63c-2.34-2.34-5.46-3.63-8.77-3.63H12.4c-3.31,0-6.43,1.29-8.77,3.63C1.29,5.97,0,9.09,0,12.4v59.78c0,3.31,1.29,6.43,3.63,8.77,2.34,2.34,5.46,3.63,8.77,3.63h255.2c6.84,0,12.4-5.56,12.4-12.4V12.4c0-3.31-1.29-6.42-3.63-8.77" style="fill: #fff; stroke-width: 0px;"></path>
                  <path d="m152.24,6.4c-1.64-1.64-3.83-2.55-6.15-2.55H12.4c-2.32,0-4.51.9-6.15,2.55-1.64,1.64-2.55,3.83-2.55,6.15v59.78c0,2.32.9,4.51,2.55,6.15,1.64,1.64,3.83,2.55,6.15,2.55h133.69c4.79,0,8.69-3.9,8.69-8.7V12.55c0-2.32-.91-4.51-2.55-6.15" style="fill: #fff; stroke-width: 0px;"></path>
                  <path d="m152.24,6.4c-1.64-1.64-3.83-2.55-6.15-2.55h-37.38l21.5,35.88,1.97.24,1.15,1.64v1.55s1.4.25,1.4.25l1.23,1.72v1.48s1.39.24,1.39.24c0,0,1.39,1.47,1.39,1.56,0-.08,0,3.36,0,3.36,0,0,3.03,2.78,5.74,3.84,1.88.74,2.13,3.77,3.2,5.41,1.48,2.29,3.44,3.27,3.03,4.58-.98,3.52-4.58,9.42-7.94,9.75-8.4,0-8.27,0-13.27,0v5.67h16.59c4.79,0,8.69-3.9,8.69-8.7V12.55c0-2.32-.91-4.51-2.55-6.15" style="fill: #bc0022; stroke-width: 0px;"></path>
                  <path d="m95.97,3.85H12.4c-2.32,0-4.51.9-6.15,2.55-1.64,1.64-2.55,3.83-2.55,6.15v59.78c0,2.32.9,4.51,2.55,6.15,1.64,1.64,3.83,2.55,6.15,2.55h54.29c-1.36-2.27-2.89-4.85-3.36-5.63h-6.47c0-16.05,5.47-24.98,11.94-26.7.9-.16.49-4.59-.66-5.9,0,0-3.11.08-3.77-.08-.82-.24-.25-1.06-.25-1.06l3.03-6.55-.41-1.8h-11.22c-.17,0,9.25-6.47,9.25-6.47.48-17.03,17.93-18.35,28.49-11.32,6.23,4.17,6.72,12.37,6.23,18.1-.08.33-1.64.08-1.64.08,0,0-1.06,6.22,1.72,6.22h12.29c5-.17,9.83,3.18,9.83,3.18l1.23-4.26L95.97,3.85ZM21.68,68.72c-3.3,0-5.97-2.67-5.97-5.97,0-3.3,2.67-5.97,5.97-5.98,3.3,0,5.97,2.67,5.97,5.97,0,3.3-2.67,5.97-5.96,5.98" style="fill: #041e42; stroke-width: 0px;"></path>
                  <path d="m156.84,78.39c1,0,1.82.78,1.82,1.84s-.81,1.84-1.82,1.84-1.82-.79-1.82-1.84.81-1.84,1.82-1.84m0,4.18c1.3,0,2.33-1.04,2.33-2.34s-1.03-2.34-2.33-2.34-2.33,1.04-2.33,2.34,1.03,2.34,2.33,2.34m.49-2.11c.43-.03.66-.27.66-.72,0-.64-.39-.74-.95-.74h-1.19v2.44h.51v-.97h.43l.57.97h.56l-.59-.97Zm-.96-.44v-.59h.56c.24,0,.56,0,.56.26s-.17.33-.44.33h-.68Z" style="fill: #bc0022; stroke-width: 0px;"></path>
                  <polygon points="191.84 44.49 182.37 44.49 182.37 66.61 169.44 53.68 169.44 19.73 182.37 19.73 182.37 31.56 191.84 31.56 191.84 44.49" style="fill: #bc0022; stroke-width: 0px;"></polygon>
                  <path d="m223.77,48.77c0,3.65-2.96,6.61-6.61,6.61s-6.61-2.96-6.61-6.61,2.96-6.61,6.61-6.61,6.61,2.96,6.61,6.61m12.41,0c0-10.5-8.52-19.02-19.02-19.02-3.53,0-6.83.96-9.66,2.64v-12.65h-12.44v46.88h10.96v-2.43c3.13,2.27,6.98,3.6,11.14,3.6,10.5,0,19.02-8.51,19.02-19.02" style="fill: #bc0022; stroke-width: 0px;"></path>
                  <path d="m268.87,38.63l-9.43-9.43h-6.84c-9.95,0-15.31,5.31-15.31,12.16v.1c0,7.63,7.13,9.82,15.2,11.59l3.61.8c1.9.42,1.59,3.21-.35,3.21h-18.94l9.52,9.53h8.98c9.69,0,15.92-4.64,15.92-12.21v-.1c0-7.27-6.25-9.62-15.41-11.65l-3.61-.81c-1.9-.42-1.59-3.21.35-3.21h16.3Z" style="fill: #bc0022; stroke-width: 0px;"></path>
                  <path d="m161.89,72.13c-.51,0-.93-.42-.93-.93V13.29c0-.51.42-.93.93-.93s.93.42.93.93v57.91c0,.51-.42.93-.93.93Z" style="fill: #bc0022; stroke-width: 0px;"></path>
                </g>
              </svg>