<svg id="sports-logo-nhl-tnt" xmlns="http://www.w3.org/2000/svg" viewBox="0 0 260 75.94">
                <title>NHL on TNT</title>
                <g>
                  <polygon points="242.97 75.94 0 75.94 17.03 0 260 0 242.97 75.94" style="fill: #fff; stroke-width: 0px;"></polygon>
                  <g>
                    <path d="m251.35,0H17.03L0,75.94h242.97L260,0h-8.65Zm-72.72,3.72l-15.36,68.5H4.64L20.01,3.72h158.62Zm32.55,64.46c-16.54,0-29.95-13.41-29.95-29.95,0-1.56.12-3.1.35-4.59h6.4v17.7h6.07v-17.7h6.8v17.7h5.8v-13.19h.12l7.72,11.56c.77,1.22,1.47,1.64,2.95,1.64h3.98v-17.7h6.82v17.7h5.97v-17.7h6.57c.23,1.5.35,3.03.35,4.59,0,6.91-2.35,13.27-6.28,18.34-5.48,7.06-14.04,11.61-23.67,11.61Zm0-59.9c13.42,0,24.79,8.83,28.59,21.01h-24.03v11.08h-.21l-6.06-9.44c-.74-1.22-1.48-1.64-2.95-1.64h-23.92c3.81-12.17,15.16-21.01,28.59-21.01Z" style="stroke-width: 0px;"></path>
                    <path d="m131.79,24.22l-8.69,35.38,33.54-.03c.64-4.45,1.53-7.51,2.15-10.01l-19.73-.03,8.17-33.31h-18.5c1.91,1.78,3.88,4.6,3.06,7.99Z" style="stroke-width: 0px;"></path>
                    <path d="m19.62,59.6h13.46s6.11-24.76,6.11-24.76l10.67,24.76h14.81l10.62-43.37h-13.41s-6.76,27.49-6.76,27.49l-11.61-27.49h-18.18c1.9,1.83,3.84,4.65,3.01,8.04l-8.71,35.32Z" style="stroke-width: 0px;"></path>
                    <path d="m81.24,24.32l-8.71,35.28h13.48l4.1-16.68,15.77-.03-4.13,16.71h13.48s10.64-43.36,10.64-43.36h-13.5s-4.05,16.67-4.05,16.67h-15.78s4.12-16.67,4.12-16.67h-18.51c1.92,1.84,3.91,4.68,3.09,8.08Z" style="stroke-width: 0px;"></path>
                  </g>
                </g>
              </svg>