<svg id="sports-logo-nba-tnt" xmlns="http://www.w3.org/2000/svg" viewBox="0 0 240 104.19">
                <title>NBA on TNT</title>
                <g>
                  <polygon points="235.35 0 4.65 0 0 0 0 4.65 0 99.53 0 104.19 4.65 104.19 235.35 104.19 240 104.19 240 99.53 240 4.65 240 0 235.35 0" style="fill: #fff; stroke-width: 0px;"></polygon>
                  <path d="m128.16,90.14c-1.27-1.12-.41-1.62-.47-2.06-.82-3.44-3.59-5.56-2.15-6.68-.35-1.15-1.06-2.56-1.03-2.56-4.27-2.44-7.91-6.44-8.53-7.03-.62-.59-2.03-1.65-2.27-2.29-1.03-.94-6.06-8.09-7.24-10.74l-2.06-.29c-.94-3.79-4.03-7-4.12-10.8-.03-1.44.65-4.53.91-5.15.26-.62,1.44-1.65,1.44-1.65v-1.03c-4.47.12-3.18-.32-3.94-2.06-.53-1.21-.15-1.47.03-2.29.59-2.47,2.59-6.27,3.41-7.97.26-.88,1.12-2.97,1.12-2.97,3.32-6.77,4.56-6.27,8.53-6.65l.21-.29c3.97-.18,3.32-.47,3.88-4.29-.59.24-.74-1.21-.74-1.21-.32-2.18.59-1.76,1.03-1.79.09-3.56.47-4.68,3.03-5.68h2.27s-116.84,0-116.84,0v94.88h124.48c-2.64-1.45-1.06-4.18-.97-9.4Zm-84.61-11.95h-7.95l-6.99-42.69c.45,9.87.63,17.74.63,25.93v16.83h.06s-5.45,0-5.45,0V24.92h8.63l6.99,43.66c-.57-10.45-1.36-23.09-1.36-33.86v-9.87h5.45v53.34Zm21.93-34.63c0,4.84-1.31,7.29-3.12,8.51,1.82,1.42,3.12,3.8,3.12,7.87v7.74c0,7.29-3.47,10.58-8.52,10.58h-9.09V24.92h9.09c5.28,0,8.52,3.22,8.52,10.71v7.93Zm15.51,34.7l-.74-10.84h-5.68l-.8,10.84h-6.31l5.68-53.34h8.98l5.45,53.34h-6.59Z" style="fill: #00438c; stroke-width: 0px;"></path>
                  <path d="m235.35,99.53V4.65h-113.86c1.21.44,1.96.97,2.37,1.77.97.09,2.15,2.27.32,5.5.79.53.18,1.29-.41,2.24-.18.29-.35.82-.88.79-.68,1.44-1.5,2.88-2.15,2.97-.18.24-.32.85-.03,1.15.95.33,1.85.82,2.65,1.44v.32c.71.41,1.06.76,1.79,1.21,1.91,1.21,4.27,3.32,3.94,10.68.53,1.59.76,4.74,1.27,5.77,1,1.97,1.65,3.24,1.94,5.12,0,0,.29,2.88.65,3.09,1.97.44,1.41.65,1.68.97.26.32,1.44.38,1.44,1.44.32.46.58.95.81,1.46.41.91.64,1.88.64,2.88,0,.97-.24,1.92-.64,2.8-2.14,4.69-8.83,6-12.63.64-.02-.02-.03-.05-.04-.07-2.12-4.86.59-9.31,4.62-10.3-.82-2.03-2.53-5.32-3.03-6.41-.5-1.09-1.65-7.77-1.88-9.09-.06-.29-3.03,1.74-3.03,1.85s-2.24,5.56-2.32,5.85c-.09.29-.06.91-.06.91,0,0,1,.12,1.59,1.88.59,1.76,2.32,8.21,2.32,8.21,0,0-.47.5-.5.47,2.24,7.44,1.44,10.65,2.44,12.83,1.26,3.09,1.59,2.68,2.68,5.27.76,1.88,1.62,9.3,1.91,9.62,1.21,1.53,1.85,2.71,1.85,3.56s-1.03,3.41-.65,4.91c.24.88.35,2.82.74,3.21.38.38.38.74.18,1.06-.08.12-.12.27-.12.41.68,2.32,2.79,6.33-.68,8.41l-.12.07h105.19ZM183.7,14.45c17.12,0,31.61,11.27,36.46,26.79h-30.64v14.13h-.27l-7.73-12.04c-.94-1.56-1.88-2.09-3.77-2.09h-30.5c4.85-15.52,19.34-26.79,36.46-26.79Zm.01,76.38c-21.09,0-38.19-17.1-38.19-38.2,0-1.99.15-3.95.45-5.86h8.16v22.57h7.74v-22.57h8.67v22.57h7.39v-16.83h.16l9.84,14.74c.98,1.55,1.88,2.09,3.76,2.09h5.08v-22.57h8.7v22.57h7.61v-22.57h8.39c.3,1.91.45,3.86.45,5.86,0,21.09-17.1,38.2-38.19,38.2Z" style="fill: #da1a32; stroke-width: 0px;"></path>
                  <path d="m77.47,30.91h-.34c-.4,6.45-1.19,17.67-1.42,21.28l-.74,9.16h4.89l-.74-9.16c-.23-3.68-1.13-14.83-1.65-21.28Z" style="fill: #00438c; stroke-width: 0px;"></path>
                  <path d="m56.51,31.56h-2.39v17.67h2.33c2.22,0,2.78-.9,2.78-3.8v-10.25c0-2.45-.68-3.61-2.73-3.61Z" style="fill: #00438c; stroke-width: 0px;"></path>
                  <path d="m56.45,55.1h-2.33v16.45h2.39c2.16,0,2.73-1.29,2.73-3.81v-9.03c0-2.64-.74-3.61-2.78-3.61Z" style="fill: #00438c; stroke-width: 0px;"></path>
                </g>
              </svg>