<svg id="sports-logo-march-madness" xmlns="http://www.w3.org/2000/svg" viewBox="0 0 260 109.75">
                <title>NCAA March Madness</title>
                <g>
                  <g>
                    <path d="m217.11,0l-.99,5.49H54.47c-3.42-1.64-7.2-2.51-10.98-2.51-6.78,0-13.16,2.65-17.97,7.45-.57.57-1.12,1.18-1.64,1.8-1.04,1.26-1.96,2.62-2.74,4.05-.39.72-.75,1.47-1.07,2.22-1.33,3.14-2,6.47-2,9.89s.67,6.75,2,9.89c.14.34,3.21,7.94,6.23,15.45H10.01L0,109.75h42.9l.99-5.47h187.92s17.95-17.67,17.95-17.67l5.57-33.02-4.01-4.18L260,0h-42.89Z" style="fill: #c0c6d6; stroke-width: 0px;"></path>
                    <path d="m219.12,2.4l-.99,5.48H53.91c-3.22-1.64-6.81-2.5-10.42-2.5-6.14,0-11.92,2.4-16.27,6.75-.52.52-1.02,1.07-1.49,1.63-.94,1.14-1.78,2.37-2.48,3.67-.36.65-.68,1.33-.97,2.01-1.2,2.84-1.81,5.85-1.81,8.96s.61,6.11,1.81,8.95c.17.39,4.58,11.35,7.57,18.79H12.02L2.87,107.35h38.02l.89-5.03h188.72s17.05-17.05,17.05-17.05l5.2-30.88-4.02-4.18,8.4-47.8h-38.02Z" style="stroke-width: 0px;"></path>
                  </g>
                  <g>
                    <polygon points="224.42 89.39 218.69 95.25 225.48 95.25 225.48 95.25 228 95.25 233.68 89.39 225.87 89.39 224.42 89.39" style="fill: #7c8795; stroke-width: 0px;"></polygon>
                    <polygon points="170.31 89.39 167.66 89.39 161.8 95.25 163.23 95.25 168.18 95.25 173.99 89.39 170.31 89.39" style="fill: #7c8795; stroke-width: 0px;"></polygon>
                    <path d="m87.03,89.39h-2.62l-5.86,5.86h7.96l5.81-5.86h-5.29Z" style="fill: #7c8795; stroke-width: 0px;"></path>
                    <path d="m107.75,89.39h-1.25l-5.86,5.86h6.61l5.81-5.86h-5.3Z" style="fill: #7c8795; stroke-width: 0px;"></path>
                    <path d="m98.51,89.39h-2.37l-5.86,5.86h6.46l5.81-5.86h-4.03Z" style="fill: #7c8795; stroke-width: 0px;"></path>
                    <polygon points="131.27 89.39 129.93 89.39 124.07 95.25 134.9 95.25 138.19 95.25 144 89.39 132.08 89.39 131.27 89.39" style="fill: #7c8795; stroke-width: 0px;"></polygon>
                    <polygon points="121.12 89.39 118.21 89.39 112.35 95.25 116.69 95.25 116.69 95.25 119.4 95.25 120.76 95.25 126.57 89.39 121.12 89.39" style="fill: #7c8795; stroke-width: 0px;"></polygon>
                    <path d="m155.25,89.4h-2.19l-5.85,5.85h7.63l5.69-5.86c-.09,0-.17.02-.26.02h-5.01Z" style="fill: #7c8795; stroke-width: 0px;"></path>
                    <polygon points="178.38 89.38 177.85 89.38 172.12 95.24 187.29 95.24 192.98 89.38 179.81 89.38 178.38 89.38" style="fill: #7c8795; stroke-width: 0px;"></polygon>
                    <polygon points="201.59 89.39 195.86 95.25 202.65 95.25 202.65 95.25 205.17 95.25 210.85 89.39 203.04 89.39 201.59 89.39" style="fill: #7c8795; stroke-width: 0px;"></polygon>
                    <polygon points="76.93 89.39 74 89.39 68.14 95.25 69.85 95.25 74.8 95.25 80.61 89.39 76.93 89.39" style="fill: #7c8795; stroke-width: 0px;"></polygon>
                  </g>
                  <path d="m151.46,82.23l2.52-14.3,2.08-11.78-3.41-3.56h-15.55l-5.83,33.19h15.5l2.35-1.78,2.35-1.78Zm-3.27-22.62l-3.37,19.11c-.02.14-.06.27-.12.38-.16.33-.46.52-.93.52h-4.17l3.7-20.86h4.22c.34,0,.53.13.62.33.06.14.08.31.05.52Z" style="fill: #fff; stroke-width: 0px;"></path>
                  <path d="m165.16,67.92l3.08,16.26c.09.52.31.92.62,1.2.31.27.71.41,1.19.41h5.31l5.83-33.19h-6.78l-3.13,17.92-3.41-17.92h-6.78l-5.83,33.19h5.03c1.09,0,1.85-.52,2.04-1.61l2.84-16.26Z" style="fill: #fff; stroke-width: 0px;"></path>
                  <path d="m219.04,82.37l.18-.13,1.93-10.86.35-1.94-3.41-3.56h-8.06l1.09-6.21c.09-.57.43-.9,1.04-.9h2.89c.43,0,.64.19.68.5.01.1,0,.22-.02.35l-.26,1.56-.26,1.56h5.5c1.09,0,1.85-.52,2.04-1.61l.85-4.98-2.26-2.35-1.15-1.2h-11l-2.02,1.53-2.67,2.02-2.18,12.37,3.41,3.51h8.06l-1.19,6.69c-.02.14-.06.27-.12.38-.16.33-.46.52-.93.52h-3.37c-.57,0-.76-.28-.66-.85l.38-2.18c.05-.27.06-.51.03-.71-.09-.61-.54-.9-1.35-.9h-5.64l-1.28,7.25,3.41,3.56h11.47l2.35-1.78,2.17-1.64h0Z" style="fill: #fff; stroke-width: 0px;"></path>
                  <path d="m243.25,52.6h-11l-2.02,1.53-2.67,2.02-2.18,12.37,3.41,3.51h8.06l-1.19,6.69c-.02.14-.06.27-.12.38-.16.33-.46.52-.93.52h-3.37c-.43,0-.64-.16-.68-.48-.01-.11,0-.23.02-.37l.38-2.18c.14-.82-.06-1.32-.63-1.51-.19-.07-.42-.1-.69-.1h-5.64l-1.28,7.25,3.41,3.56h11.47l4.69-3.56,2.28-12.8-3.41-3.56h-8.06l1.09-6.21c.04-.25.14-.44.27-.59.02-.02.03-.05.05-.07.17-.15.41-.24.72-.24h2.89c.34,0,.53.13.62.33.06.14.08.31.05.52l-.26,1.56-.26,1.56h5.5c1.09,0,1.85-.52,2.04-1.61l.85-4.98-.13-.14-3.28-3.42Z" style="fill: #fff; stroke-width: 0px;"></path>
                  <path d="m128.56,85.79l.15-6.32.61-25.01h0c0-.89-.4-1.48-1.1-1.73-.23-.08-.5-.12-.8-.12h-8.96l-5.36,16.59-5.36,16.59h5.88s.05-.01.09-.01c.5-.01.9-.13,1.21-.38.33-.26.55-.65.69-1.17l1.23-4.36h4.65l-.38,5.93h7.44Zm-10.1-11.76l4.41-15.69-1,15.69h-3.41Z" style="fill: #fff; stroke-width: 0px;"></path>
                  <path d="m196.61,84.29h0s.03-.07.04-.11l.81-4.55h-9.29l.66-3.79.66-3.79h5.22c.55,0,.97-.14,1.3-.41.33-.27.57-.68.73-1.2l1.47-4.55h0s-7.63,0-7.63,0l1.02-5.88.21-1.23h7.3c.52,0,.96-.13,1.3-.37.38-.27.64-.67.74-1.24l.57-3.44.19-1.11h-16.26l-2.92,16.59-2.92,16.59h14.79c.36,0,.67-.08.95-.2.53-.22.9-.65,1.05-1.3Z" style="fill: #fff; stroke-width: 0px;"></path>
                  <path d="m103.29,85.79c.27,0,.52-.03.75-.1.45-.13.81-.4,1.04-.8.11-.2.2-.44.25-.71l5.55-31.58h-10.43l-3.86,11.69-3.86,11.69.57-21.76h0c0-.52-.12-.92-.37-1.2-.25-.27-.65-.41-1.19-.41h-8.96l-5.83,33.19h4.79c.36,0,.67-.08.95-.2.56-.23.96-.69,1.09-1.41l3.89-22.14-.62,23.75h6.12c.3,0,.56-.03.79-.1.7-.2,1.15-.71,1.43-1.56l7.3-22.09-4.17,23.75h4.79Z" style="fill: #fff; stroke-width: 0px;"></path>
                  <polygon points="69.56 79.93 63.12 79.93 65.14 68.82 40.44 68.82 41.43 63.35 17.7 63.35 16.99 67.41 36.57 67.41 35.32 74.28 15.78 74.28 15.07 78.34 38.71 78.34 39.7 72.88 60.28 72.88 56.99 91.05 36.29 91.05 37.28 85.58 13.8 85.58 13.09 89.64 32.42 89.64 31.18 96.51 11.88 96.51 11.17 100.57 34.57 100.57 35.56 95.11 60.37 95.11 62.39 83.99 68.85 83.99 69.56 79.93" style="fill: #005eb8; stroke-width: 0px;"></polygon>
                  <polygon points="223.85 15.08 199.04 15.08 197.02 26.2 191.73 26.2 191.02 30.26 196.28 30.26 194.27 41.37 218.97 41.37 217.98 46.84 241.7 46.84 242.42 42.78 222.84 42.78 224.09 35.9 243.63 35.9 244.34 31.85 220.7 31.85 219.71 37.31 199.13 37.31 202.42 19.14 223.12 19.14 222.13 24.61 245.61 24.61 246.32 20.55 226.99 20.55 228.23 13.68 247.53 13.68 248.24 9.62 224.84 9.62 223.85 15.08" style="fill: #005eb8; stroke-width: 0px;"></polygon>
                  <g>
                    <path d="m144.12,47.7h10.76l4.69-3.56h0s1.23-7.02,1.23-7.02c.09-.52.04-.92-.18-1.2-.11-.14-.26-.24-.45-.31-.19-.07-.42-.11-.69-.11h-5.64l-.9,5.12c-.02.11-.05.2-.09.29-.15.38-.46.61-.95.61h-2.66c-.28,0-.47-.08-.58-.23s-.13-.36-.08-.62l3.37-19.11c.05-.28.15-.51.33-.66.17-.15.41-.24.72-.24h2.65c.57,0,.76.33.66.85l-.85,4.93h5.5c.55,0,1.01-.13,1.36-.4.17-.13.32-.3.44-.5.11-.2.2-.44.25-.71l1.19-6.78-3.41-3.56h-10.76l-4.69,3.56-4.6,26.08,3.41,3.56Z" style="fill: #fff; stroke-width: 0px;"></path>
                    <path d="m66.74,47.7c.55,0,1.01-.13,1.36-.4.35-.27.59-.67.68-1.21l3.89-22.14-.62,23.75h6.12c.89,0,1.48-.29,1.89-.92.13-.21.25-.45.34-.74l7.3-22.09-4.17,23.75h4.79c.55,0,1.01-.13,1.36-.4.35-.27.59-.67.68-1.21l5.55-31.58h-10.43l-7.73,23.37.57-21.76c0-1.04-.47-1.61-1.56-1.61h-8.96l-5.83,33.19h4.79Z" style="fill: #fff; stroke-width: 0px;"></path>
                    <path d="m94.88,41.17l-2.11,6.52h5.88c.27,0,.52-.03.73-.1.43-.13.75-.39.98-.78.11-.2.21-.42.28-.68l1.23-4.36h4.65l-.38,5.93h7.44l.76-31.34c0-.3-.04-.56-.13-.79-.09-.23-.21-.42-.37-.58-.16-.16-.36-.28-.6-.36-.23-.08-.5-.12-.8-.12h-8.96l-5.36,16.59-3.25,10.07h0Zm13.02-20.93l-1,15.69h-3.41l4.41-15.69Z" style="fill: #fff; stroke-width: 0px;"></path>
                    <path d="m121.79,47.7c.27,0,.52-.03.75-.1s.43-.17.61-.3c.35-.27.59-.67.68-1.21l1.85-10.38h2.42l1.09,6,1.09,6h6.02c.58,0,.97-.25,1.17-.66.12-.26.19-.57.11-.95l-2.23-11.43.76-.58,2.51-1.93,2.47-14.08-3.41-3.56h-15.55l-5.83,33.19h5.5Zm6.54-27.02h4.22c.28,0,.47.08.58.23.11.15.13.36.08.62l-1.23,7.11c-.09.57-.43.9-1.04.9h-4.17l1.56-8.87Z" style="fill: #fff; stroke-width: 0px;"></path>
                    <path d="m162.7,47.7h5.5c1.09,0,1.85-.52,2.04-1.61l.84-4.81,1.2-6.85h5.03l-2.32,13.28h5.5c1.09,0,1.85-.52,2.04-1.61l5.55-31.58h-7.25l-1.19,6.76-1.19,6.76h-5.03l2.37-13.51h-7.25l-2.92,16.59-2.92,16.59h0Z" style="fill: #fff; stroke-width: 0px;"></path>
                  </g>
                  <polygon points="70.84 50.97 60.71 61.41 67.91 61.41 72.83 56.37 72.83 56.37 78.11 50.97 72.69 50.97 70.84 50.97" style="fill: #7c8795; stroke-width: 0px;"></polygon>
                  <polygon points="49.19 61.41 56 61.41 66.17 50.97 62.59 50.97 59.32 50.97 49.19 61.41" style="fill: #7c8795; stroke-width: 0px;"></polygon>
                  <path d="m247.66,57.66c0-.6.45-1.05,1.03-1.05s1.02.45,1.02,1.05-.45,1.05-1.02,1.05-1.03-.45-1.03-1.05Zm1.03,1.26c.69,0,1.27-.53,1.27-1.26s-.59-1.26-1.27-1.26-1.28.53-1.28,1.26.59,1.26,1.28,1.26Zm-.27-1.16h.25l.38.63h.25l-.41-.64c.21-.03.38-.14.38-.4,0-.29-.17-.41-.51-.41h-.55v1.45h.22v-.63Zm0-.19v-.45h.3c.15,0,.32.03.32.21,0,.22-.17.24-.35.24h-.26Z" style="fill: #fff; stroke-width: 0px;"></path>
                  <g>
                    <circle cx="43.39" cy="28.36" r="16.37" style="fill: #fff; stroke-width: 0px;"></circle>
                    <path d="m55.98,36h1.89c-2.74,5.19-8.2,8.73-14.48,8.73-9.04,0-16.37-7.33-16.37-16.37s7.33-16.37,16.37-16.37,16.37,7.33,16.37,16.37c0,2.42-.53,4.72-1.47,6.78l-.47-6.9h-4.25l-.5,1.77h.66l-2.1,3.33-.29-5.1h-4.31l-.49,1.76h.66s-2.81,4.28-2.81,4.28h-2.32c-.24-.01-1.18-.24-1.18-1.39s1.1-2.84,2.23-2.84h.47c-.08.3-.25.89-.25.89h2.06l.74-2.69h-3.18c-1.98,0-3.57,1.41-4.08,2.87l.83-2.87h-2.83s-.5,1.77-.5,1.77h.73s-.74,2.59-.74,2.59l-1.86-4.36h-2.64s-.5,1.77-.5,1.77h.73l-1.64,5.98h2.11s.82-2.97,1.03-3.73c.3.72,1.54,3.73,1.54,3.73h2.35l1.08-3.8c-.1.57-.1,1.16,0,1.74.21,1.24,1.42,2.06,2.74,2.06h4.27s.74-1.11.74-1.11h3.02l.06,1.11h2.66l.69-1.11h3.09l.12,1.11Zm-1.86-3h1.72l-.08-2.48-1.64,2.48Zm-6.57.03h1.73l-.09-2.49-1.64,2.49Z" style="fill: #009cde; stroke-width: 0px;"></path>
                    <g>
                      <path d="m59.76,36.01c-.73,0-1.32.59-1.32,1.32s.59,1.32,1.32,1.32,1.32-.59,1.32-1.32-.58-1.32-1.32-1.32Zm1.04,1.32c0,.57-.47,1.04-1.04,1.04s-1.04-.47-1.04-1.04.46-1.04,1.04-1.04,1.04.46,1.04,1.04Z" style="fill: #009cde; stroke-width: 0px;"></path>
                      <path d="m60.39,37.04c0-.3-.28-.48-.53-.48h-.63v1.54h.29v-.58h.19l.38.58h.35l-.4-.6c.13-.03.35-.16.35-.46Zm-.3,0c0,.13-.12.22-.23.22h-.34v-.44h.34c.11,0,.23.09.23.23Z" style="fill: #009cde; stroke-width: 0px;"></path>
                    </g>
                  </g>
                </g>
              </svg>