<svg id="bundle-lockup-disney-plus-hulu-max" xmlns="http://www.w3.org/2000/svg" viewBox="0 0 820 150">
  <svg id="bundle-logo-disney-plus">
    <title>Disney Plus</title>
    <path d="M57.7,40.88c-.47-.32-.68-1.09-.06-1.79,6.25-7.07,13.36-13.26,20.51-18.1,43.75-29.86,106.54-25.79,145.29,10.72,12.93,12.15,21.82,27.09,26.42,40.7.29.84-.35,1.71-1.22,1.71h-4.24c-.78,0-1.49-.51-1.74-1.26-3.5-10.26-10.19-23.31-22.31-35.47C183.43.17,120.32-4.09,77.32,25.27c-6.56,4.47-12.31,9.4-17.56,15.07-.61.66-1.46.97-2.06.54Z"></path>
    <path d="M270.08,99.07v4.7c0,.71-.58,1.29-1.29,1.29h-15.32c-.17,5.3-.7,10.53-1.6,15.67-.15.89-.92,1.53-1.81,1.53h-4.14c-.81,0-1.42-.74-1.27-1.53.97-5.13,1.54-10.37,1.72-15.67h-15.58c-.71,0-1.29-.58-1.29-1.29v-4.7c0-.71.58-1.29,1.29-1.29h15.58c-.18-5.3-.76-10.54-1.72-15.67-.15-.8.46-1.53,1.27-1.53h4.14c.89,0,1.66.65,1.81,1.53.9,5.14,1.44,10.38,1.6,15.67h15.32c.72,0,1.29.58,1.29,1.29Z"></path>
    <path d="M220.01,92.6h-.01c-6.46-4.48-16.88,9.73-21.47,16.78-.68-3.58,1.75-8.14,1.75-8.14,0,0,3.9-6.74,4.45-8.11.53-1.38.84-4.21.17-4.49-.61-.28-1.65.62-1.65.62-8.75,7.85-9.97,16.55-9.97,16.55-.83,4.69.14,7.97,1.56,10.28-4.86,10.35-7.24,19.38-6.6,24.72.59,4.07,3.5,7.01,5.27,7.62,1.79.75,2.11-1.39,2.11-1.39,1.44-11.04,3.97-18.43,6.98-25.72,9.11,2.1,15.97-6.78,18.39-11.01,1.43-2.55,2.2-5.95,2.19-9.14,0-3.64-1-7.02-3.17-8.57ZM214.07,110.19v.02c-1.05.99-4.51,2.94-8.1,3.34,3.42-6.64,7.67-11.51,10.02-14.12,2.74-3.09,3.1-.29,3.1-.29.63,5.45-3.33,9.54-5.02,11.05Z"></path>
    <path d="M173.85,123.29s-3.12.2-5.76-4.01c-2.46-4.01.93-11.62.93-11.62,0,0-1.56-3.55-.43-4.75,0,0,.67-.61,2.63-.75l2.4-4.94s-2.72.18-4.34-1.82c-1.51-1.9-1.64-2.78-.47-3.3,1.23-.61,12.58-2.68,20.38-2.42,0,0,2.72-.26,5.07,4.44,0,0,1.14,1.9-.79,2.36-3.78.88-13.7,1.35-13.7,1.35l-1.26,3.92s4.95-.43,8.57-.05c0,0,1.16-.14,1.3,1.33.05,1.37-.12,2.83-.12,2.83,0,0-.08.89-1.34,1.11-1.36.23-10.69.59-10.69.59l-1.51,5.12s-.57,1.19.69.84c1.18-.31,10.95-2.14,12.21-1.89,1.36.34,2.87,2.15,2.44,3.81-.52,2.05-10.28,8.27-16.22,7.85h0Z"></path>
    <path d="M163.87,96.61c2.57,8.69.84,16.52-.17,18.9-1,2.35-3.64,4.86-6.93,3.31-3.24-1.57-8.4-12.13-8.4-12.13,0,0-1.96-3.94-2.34-3.84,0,0-.43-.77-.68,3.54-.26,4.29.06,12.65-1.66,13.97-1.62,1.31-3.58.79-4.6-.75-.92-1.52-1.31-5.13-.81-11.47.59-6.35,2.06-13.1,3.95-15.21,1.88-2.09,3.4-.58,3.99-.02,0,0,2.51,2.28,6.67,8.98l.74,1.24s3.77,6.33,4.17,6.32c0,0,.31.29.59.08.39-.11.23-2.14.23-2.14,0,0-.78-6.9-4.22-18.57,0,0-.52-1.45-.17-2.82.35-1.38,1.73-.74,1.73-.74,0,0,5.34,2.68,7.93,11.37"></path>
    <path d="M136.6,92.91c-.29,1.38-1.32,2.27-2.59,2.66-1.32.41-4.06.59-5.25.66-5.38.3-11.88.14-17.01,1.54-.4.12-1.09.3-1.32.55-.81.88,1.49,1.14,1.98,1.22.9.14,10.66,1.27,11.98,1.43,8.3,1.05,9.41,3.31,10.32,5.01,1.39,2.58,1.52,6.21.23,8.93-2.41,5.06-8.76,6.05-10.97,6.3-3.86.43-8.04-.33-11.5-2.05-7.43-3.7-7.1-8.09-5.6-10.27,1.66-2.42,5.67-3.02,8.58-2.92,2.22.08,6.22.77,8.33,1.52.59.21,2.74,1.05,3.11,1.44.27.26.44.66.32,1.01-.48,1.48-4.06,2.25-5.09,2.41-2.76.43-4.21-.62-7.35-1.87-.78-.31-1.82-.64-2.62-.71-1.43-.14-3.23.25-3.42,1.82-.13.98.81,1.56,1.53,1.87,1.68.73,3.05.98,4.72,1.01,4.91.08,10.43-.73,14.44-3.57.55-.39,1.09-.97,1.09-1.69.02-1.46-2.55-2.35-2.55-2.35-2.71-1.13-7.62-1.6-10.28-1.89-2.82-.3-9.17-.52-11.07-1.51-1.07-.55-1.81-1.34-2.07-2.36-.47-1.84.13-4.1,1.15-5.58,2.68-3.86,8.96-5.32,13.65-5.9,4.54-.56,11.89-.56,16.35,1.81.69.37,1.04.71.9,1.45"></path>
    <path d="M102.56,114.05c.08,1.82.22,4.23-.16,5.93-.14.61-.54,1.33-1.13,1.68-.67.43-2.2.46-3.04.29-2.07-.43-2.74-1.76-3.04-3.8-.7-4.89-.37-14.46.05-18.51.14-1.34.63-5.61,1.34-7.41.24-.6.75-1.82,1.62-1.65.13.02.31.08.47.14,1.42.54,1.99,1.84,2.34,3.28.81,3.33,1.15,10.72,1.28,13.61.09,2.17.15,4.3.24,6.44"></path>
    <path d="M118.12,69.21c-.3-1.39-.93-2.35-2.1-3.36-.58-.5-1.9-1.2-2.99-1.42-.31-.06-.64-.09-.78-.17-.15-.1-.28-.3-.43-.48-.7-.9-2.11-1.75-3.11-2.1-3.09-1.07-7.21-.27-10.04.92-2.97,1.26-5.73,3.11-7.81,5.35-5.47,5.87-3.06,10.52-2.58,11.38.41.74,1.19,1.52,1.35,2.29.1.46,0,1.05.03,1.59.03,1.23.58,2.51,1.5,3.33.67.59,1.62.76,2.58-.7.32-.48.86-1.49.86-1.49,0,0,1.12.65,3.81.83,2.02.14,4.77-.46,6.53-1.15h.03c4.03-1.57,7.14-3.84,10.29-7.07,1.84-1.87,3.46-4.95,2.86-7.75ZM92.05,76.95s-.18-.39-.31-.68c-.83-2.06,1-4.39,2.67-5.81,3.25-2.78,6.03-2.71,6.03-2.71,0,0-.66.53-1.21,1.01-4.75,4.16-7.18,8.19-7.18,8.19ZM108.73,77.21c-5.07,2.96-11.07,2.29-11.23,2.03-.02-.07,1.22-1.76,1.67-2.36h.01c1.99-2.58,5.67-5.76,8.24-7.29,2.02-1.2,3.76-1.53,5.05-.96.77.33,1.38,1.04,1.49,1.97.35,2.89-3,5.31-5.23,6.61Z"></path>
    <path d="M80.16,79.92c-3.85-3.94-14.98-14.78-37.33-21.11l-.02-.05c-8.18-2.32-21.27-5.39-35.59-1.58-2.66.7-4.47,1.88-5.74,4.11-.63,1.12-1.21,2.32-.9,3.55.28,1.05,1.76,1.41,2.96,1.6,1.15.18,3.76.32,4.46-.52.37-.44.38-1.67-1.53-2.07-.7-.15-2.63-.22-2.78-.54,0,0,.07-.23,1.12-.55.46-.14,3.88-1.54,13.21-1.24,11.1.36,20.78,2.95,31.02,6.99,10.02,3.95,21.29,11.09,27.9,19.59,2.5,3.21,5.6,8.5,6.01,12.95.99,10.81-9.56,19.92-30.98,19.2-3.66-.13-8.11-.99-8.11-.99l-.45-20.86s9.07-.07,19.09,3.23c.85.28,1.71.84,1.79,1.67.06.63-.45,1.19-1.01,1.67-1.04.91-2.47,1.3-2.78,1.68-.23.28-.23.7.07.93.76.59,2.6.98,3.85.86,2.52-.22,4.21-1.68,5.47-3.6,1.35-2.04,2.12-7.23-5.07-10.53-9.31-4.27-21.47-3.47-21.47-3.47,0,0-.06-2.83-.18-4.71-.21-3.09-1.06-9.16-3.87-10.91-.52-.32-1.14-.36-1.5.13-.54.71-1.08,3.43-1.2,4.14-1.06,6.31-1,11.98-1.06,12.06-.03.03-.07.07-.1.1-.12.07-6.83.88-13.33,3.69-2.59,1.12-6.3,3.15-7.42,5.75-1.45,3.37,1.09,7.04,5.4,11.12,3.64,3.46,9.02,7.09,13,8.97,1.01.47,2.2,1.07,2.2,1.07,0,0,.25,2.41.46,3.8.75,5.02,4.57,4.29,5.63,4.08,1.72-.35,2.04-1.5,2.28-2.81.13-.73.08-1.76.08-1.76,0,0,2.59.6,4.33.91,5.06.93,10.57,1.09,15.33.45,19.06-2.6,23.86-11.58,25.38-13.98,2.64-4.17,8.24-15.79-8.62-33.02ZM17.66,105.79v-.03c-.7-.71-1.23-1.49-1.07-2.42.15-.9,1.92-1.69,2.81-1.96,8.6-2.53,15.89-2.66,15.89-2.66,0,0-.07,3.09-.08,6.21-.03,5.91.13,11.92.13,11.92,0,0-9.7-2.82-17.68-11.06Z"></path>
  </svg>
  <svg id="bundle-logo-hulu">
    <title>Hulu</title>
    <path d="M542.1,77.01v27.9c0,10.25-5.84,17.33-15.6,17.33v.08h-15.28c-10.59,0-17.77-6-17.77-17.41v-27.9h15.6v26.57c0,2.35,1.87,4.26,4.18,4.26h9.08c2.3,0,4.17-1.9,4.17-4.26v-26.57h15.62Z"></path>
    <polygon points="465.92 122.32 481.64 122.32 481.64 56.6 465.92 56.6 465.92 122.31 465.92 122.32"></polygon>
    <path d="M438.57,103.58c0,2.35-1.87,4.26-4.17,4.26h-9.08c-2.3,0-4.17-1.9-4.17-4.26v-26.57h-15.6v27.9c0,11.41,7.17,17.41,17.77,17.41h15.28v-.08c9.76,0,15.6-7.06,15.6-17.33v-27.9h-15.6v26.57h-.03Z"></path>
    <path d="M376.47,77.1h-10c-3.51,0-5.28.97-5.28.97v-21.47h-15.59v65.71h15.59v-26.53c0-2.35,1.88-4.24,4.18-4.24h9.08c2.32,0,4.17,1.9,4.17,4.24v26.53h15.6v-28.58c0-12.02-7.89-16.64-17.76-16.64h.01Z"></path>
  </svg>
  <svg id="bundle-logo-max">
    <title>Max</title>
    <path d="M693.14,84.32v38.06h-14.4v-33c0-4.37-1.83-6.11-4.63-6.11-2.44,0-5.24,1.57-11.52,6.46v32.66h-14.4v-33c0-4.37-1.83-6.11-4.63-6.11-2.35,0-5.24,1.57-11.52,6.54v32.56h-14.4v-52.38h13.53v6.54c7.16-5.5,12.75-7.95,18.24-7.95,4.63,0,9.77,2,12.13,7.86,7.33-5.59,12.92-7.86,18.41-7.86,6.47,0,13.18,3.93,13.18,15.72"></path>
    <path d="M740.28,70h0v6.91c-4.72-5.68-10.82-8.3-17.9-8.3-14.32,0-26.19,12.31-26.19,27.59s11.87,27.59,26.19,27.59c7.07,0,13.19-2.63,17.9-8.3v6.89h13.71v-52.38h-13.71ZM724.57,111.64c-8.56,0-15.45-6.9-15.45-15.45s6.9-15.45,15.45-15.45,15.45,6.9,15.45,15.45-6.89,15.45-15.45,15.45Z"></path>
    <path d="M724.56,84.23c-6.55,0-11.87,5.32-11.87,11.96s5.32,11.96,11.87,11.96,11.87-5.32,11.87-11.96-5.32-11.96-11.87-11.96Z"></path>
    <path d="M819.2,70h-17.2c-4.28,6.64-8.91,12.23-14.06,17.72-5.24-5.5-9.86-11.08-14.06-17.72h-17.38c5.93,9.25,12.66,17.55,20.52,25.85-7.86,8.64-14.58,17.63-20.52,26.54h17.38c4.1-6.64,8.73-12.66,14.06-18.33,5.24,5.68,9.61,11.7,13.71,18.33h17.55c-6.03-9.17-12.57-17.9-20.43-26.54,7.77-8.3,14.4-16.85,20.43-25.85Z"></path>
  </svg>
</svg>