<svg class="icon" xmlns="http://www.w3.org/2000/svg" width="24" height="25" viewBox="0 0 24 25" fill="none" aria-hidden="true"><g clip-path="url(#clip0_5381_30484)"><path d="M11.9952 17.9957H11.978C11.2682 17.9932 10.5756 17.8567 9.9211 17.591C9.24203 17.3142 8.63309 16.9094 8.1115 16.3879C7.49026 15.7666 7.0228 14.999 6.75952 14.1661C6.75829 14.1612 6.75706 14.1575 6.75583 14.1538C6.65618 13.8389 6.58606 13.5117 6.54546 13.1832C6.5024 12.8375 6.49256 12.4857 6.51594 12.1376C6.51717 12.1216 6.5184 12.1043 6.51963 12.0859V12.0847C6.52701 11.9801 6.53808 11.8755 6.55284 11.7722C6.56638 11.6676 6.5836 11.5631 6.60328 11.4609C6.64265 11.2543 6.69555 11.0488 6.75829 10.8495C7.01909 10.0142 7.48779 9.24291 8.11149 8.61921C8.63431 8.09639 9.24325 7.69166 9.92109 7.4161C10.5756 7.14915 11.2681 7.01258 11.978 7.01013H12.0124C12.7222 7.01259 13.4148 7.14914 14.0693 7.41486C14.7484 7.69166 15.3573 8.09639 15.8789 8.61798C16.5001 9.23922 16.9676 10.0069 17.2309 10.8385V10.8397L17.2358 10.8532C17.4031 11.3871 17.488 11.9432 17.488 12.5042C17.488 13.0651 17.4019 13.6212 17.2346 14.1538C17.2333 14.1563 17.2333 14.1575 17.2321 14.16C16.9689 14.9941 16.5014 15.7629 15.8789 16.3854C15.3561 16.9082 14.7472 17.313 14.0693 17.5885C13.4148 17.8555 12.7223 17.992 12.0124 17.9933C12.0063 17.9957 12.0014 17.9957 11.9952 17.9957L11.9952 17.9957ZM7.4571 13.925L7.46079 13.9386C7.69084 14.6705 8.08572 15.3188 8.63192 15.865C9.52627 16.7594 10.7159 17.2539 11.9805 17.2576H11.9842H12.0039H12.0076C13.2722 17.2539 14.4618 16.7594 15.3562 15.865C15.9024 15.3188 16.2973 14.6705 16.5273 13.9386C16.5273 13.9361 16.5285 13.9349 16.5297 13.9324C16.8238 12.9999 16.8238 12.0133 16.5322 11.0796C16.531 11.0747 16.5297 11.071 16.5285 11.0673C16.2972 10.3353 15.9036 9.68704 15.3561 9.1396C14.4618 8.24525 13.2722 7.75072 12.0076 7.74704H12.0039H11.9842H11.9805C10.7159 7.75073 9.52631 8.24525 8.63191 9.1396C8.08447 9.68704 7.68958 10.3366 7.45954 11.0698C7.40542 11.242 7.3599 11.4204 7.32545 11.6C7.30823 11.6886 7.29347 11.7784 7.28117 11.8694C7.26886 11.9592 7.26025 12.049 7.25287 12.14C7.25164 12.1548 7.25041 12.1696 7.24918 12.1843C7.2295 12.4857 7.23811 12.7908 7.27501 13.091C7.31192 13.3739 7.3722 13.6544 7.45708 13.925L7.4571 13.925Z" fill="white"></path><path d="M7.10516 10.6045H16.8729V11.3426H7.10516V10.6045Z" fill="white"></path><path d="M7.10516 13.6797H16.8729V14.4179H7.10516V13.6797Z" fill="white"></path><path d="M11.9951 17.9956H11.9828C11.6261 17.9919 11.2767 17.8221 10.9716 17.5047C10.6899 17.2119 10.4414 16.7937 10.2335 16.261C9.9924 15.6434 9.81773 14.9164 9.71684 14.0971C9.71684 14.0946 9.71561 14.0922 9.71561 14.0897C9.67871 13.7859 9.65164 13.4722 9.63565 13.1548C9.61966 12.8226 9.61597 12.4856 9.62458 12.1522C9.62458 12.1362 9.62581 12.119 9.62581 12.103C9.62827 12.0021 9.63319 11.9012 9.63811 11.8028C9.64303 11.7032 9.64918 11.6023 9.65656 11.5051C9.67132 11.3058 9.69101 11.109 9.71438 10.9171C9.81526 10.0965 9.98994 9.3658 10.2311 8.74701C10.439 8.21433 10.6875 7.79608 10.9692 7.50329C11.2742 7.18591 11.6236 7.01614 11.9804 7.01245H12.005C12.3617 7.01614 12.7111 7.18591 13.0162 7.50329C13.2979 7.79608 13.5464 8.21433 13.7543 8.74701C13.9966 9.3658 14.1701 10.0941 14.271 10.9146L14.2722 10.9207C14.4002 11.9578 14.3989 13.0551 14.2722 14.091V14.0946C14.1713 14.9139 13.9967 15.6422 13.7555 16.261C13.5476 16.7937 13.2991 17.2119 13.0174 17.5047C12.7124 17.8221 12.363 17.9919 12.0062 17.9956H11.9951L11.9951 17.9956ZM10.4488 13.9987L10.45 14.0048C10.5423 14.7528 10.7047 15.4392 10.9212 15.9916C11.23 16.7813 11.631 17.255 11.9927 17.2574H12.0001C12.3617 17.255 12.7616 16.7813 13.0716 15.9916C13.2881 15.4392 13.4505 14.7528 13.5427 14.006C13.5427 14.0048 13.5427 14.0023 13.544 14.0011C13.662 13.0379 13.6633 11.9774 13.5452 11.0129C13.5452 11.0104 13.5452 11.008 13.544 11.0055C13.4517 10.2563 13.2881 9.56864 13.0716 9.01506C12.7628 8.22529 12.3617 7.75166 12.0001 7.74921H11.9927C11.631 7.75167 11.2312 8.22529 10.9212 9.01506C10.7047 9.56864 10.5411 10.2575 10.4488 11.0067C10.4266 11.1863 10.4082 11.3733 10.3947 11.5603C10.3873 11.6526 10.3811 11.7473 10.3762 11.842C10.3713 11.9355 10.3676 12.0315 10.3651 12.125C10.3651 12.1397 10.3639 12.1557 10.3639 12.1717C10.3553 12.4866 10.359 12.8065 10.375 13.1202C10.3885 13.4167 10.4143 13.7131 10.4488 13.9985L10.4488 13.9987Z" fill="white"></path></g><defs><clipPath id="clip0_5381_30484"><rect width="11" height="11" fill="white" transform="translate(6.5 7)"></rect></clipPath></defs></svg>